@startuml
class ChangePasswordModel {
    + ChangePasswordModel(userManager:UserManager<User>, signInManager:SignInManager<User>, logger:ILogger<ChangePasswordModel>)
    + StatusMessage : string <<get>> <<set>>
    + <<async>> OnGetAsync() : Task<IActionResult>
    + <<async>> OnPostAsync() : Task<IActionResult>
}
class InputModel {
    + OldPassword : string <<get>> <<set>>
    + NewPassword : string <<get>> <<set>>
    + ConfirmPassword : string <<get>> <<set>>
}
PageModel <|-- ChangePasswordModel
ChangePasswordModel --> "Input" InputModel
ChangePasswordModel +-- InputModel
@enduml
